HIERARCHY
ROOT joint_0
{
	OFFSET 0.000000 0.000000 0.000000
	CHANNELS 6 Xposition Yposition Zposition Zrotation Yrotation Xrotation 
	JOINT joint_1
	{
		OFFSET 11.612000 -0.419000 106.198000
		CHANNELS 3 Zrotation Yrotation Xrotation
		JOINT joint_2
		{
			OFFSET -1.708000 -1.022000 97.564090
			CHANNELS 3 Zrotation Yrotation Xrotation
			JOINT joint_3
			{
				OFFSET -4.121000 -1.538000 97.375000
				CHANNELS 3 Zrotation Yrotation Xrotation
				JOINT joint_4
				{
					OFFSET 5.442000 -2.123000 132.795900
					CHANNELS 3 Zrotation Yrotation Xrotation
					JOINT joint_5
					{
						OFFSET 21.935000 0.195000 82.975100
						CHANNELS 3 Zrotation Yrotation Xrotation
						End Site
						{
							OFFSET 0.000000 0.000000 0.000000
						}
					}
				}
				JOINT joint_6
				{
					OFFSET 4.262000 -30.048000 73.899900
					CHANNELS 3 Zrotation Yrotation Xrotation
					JOINT joint_7
					{
						OFFSET 9.731000 -136.810010 -21.963010
						CHANNELS 3 Zrotation Yrotation Xrotation
						JOINT joint_8
						{
							OFFSET 33.360000 -35.709000 -267.597900
							CHANNELS 3 Zrotation Yrotation Xrotation
							JOINT joint_9
							{
								OFFSET 36.156000 -29.759000 -240.558040
								CHANNELS 3 Zrotation Yrotation Xrotation
								End Site
								{
									OFFSET 0.000000 0.000000 0.000000
								}
							}
						}
					}
				}
				JOINT joint_10
				{
					OFFSET 2.027000 27.734000 74.914920
					CHANNELS 3 Zrotation Yrotation Xrotation
					JOINT joint_11
					{
						OFFSET -5.183000 136.784000 -23.604980
						CHANNELS 3 Zrotation Yrotation Xrotation
						JOINT joint_12
						{
							OFFSET 29.806000 37.229000 -267.809940
							CHANNELS 3 Zrotation Yrotation Xrotation
							JOINT joint_13
							{
								OFFSET 36.890000 46.524990 -237.772030
								CHANNELS 3 Zrotation Yrotation Xrotation
								End Site
								{
									OFFSET 0.000000 0.000000 0.000000
								}
							}
						}
					}
				}
			}
		}
	}
	JOINT joint_14
	{
		OFFSET -7.290000 -102.873990 -124.314940
		CHANNELS 3 Zrotation Yrotation Xrotation
		JOINT joint_15
		{
			OFFSET -15.466000 -19.909010 -438.533020
			CHANNELS 3 Zrotation Yrotation Xrotation
			JOINT joint_16
			{
				OFFSET -26.899000 -18.922000 -464.797000
				CHANNELS 3 Zrotation Yrotation Xrotation
				JOINT joint_17
				{
					OFFSET 179.329000 -12.011000 -84.174000
					CHANNELS 3 Zrotation Yrotation Xrotation
					End Site
					{
						OFFSET 0.000000 0.000000 0.000000
					}
				}
			}
		}
	}
	JOINT joint_18
	{
		OFFSET -6.225000 101.546000 -125.479980
		CHANNELS 3 Zrotation Yrotation Xrotation
		JOINT joint_19
		{
			OFFSET -13.973000 7.996000 -438.963010
			CHANNELS 3 Zrotation Yrotation Xrotation
			JOINT joint_20
			{
				OFFSET -44.294000 5.716000 -463.813970
				CHANNELS 3 Zrotation Yrotation Xrotation
				JOINT joint_21
				{
					OFFSET 178.505000 -4.689000 -85.139000
					CHANNELS 3 Zrotation Yrotation Xrotation
					End Site
					{
						OFFSET 0.000000 0.000000 0.000000
					}
				}
			}
		}
	}
}
MOTION
Frames: 10
Frame Time: 0.016667
-2990.176270 822.900452 1131.779053 -1.721416 1.846740 0.072905 -0.823211 12.950178 4.837056 -0.687089 -2.310251 -1.226114 -0.382196 2.057809 0.589278 -1.144378 5.495758 3.875237 0.000000 0.000000 0.000000 -3.756721 -35.863981 0.569056 -7.377517 -11.890068 3.771288 7.691894 -84.196268 37.379093 0.000000 0.000000 0.000000 4.756958 -23.168735 4.055058 2.566747 -13.461940 -1.624510 -11.029928 -86.573842 -19.512522 0.000000 0.000000 0.000000 -0.989115 8.404246 3.637631 -0.795846 10.695077 -1.729076 -0.648517 -1.192630 -0.360259 0.000000 0.000000 0.000000 0.928173 -20.872175 7.004071 1.368289 35.826464 -5.121671 0.865047 -3.664265 0.255372 0.000000 0.000000 0.000000 
-2984.496338 824.160400 1132.369019 -1.975899 1.421633 0.219328 -0.554072 13.455436 4.904554 -0.789854 -2.355383 -1.233321 -0.543520 2.114515 0.589326 -1.180449 5.647566 3.972000 0.000000 0.000000 0.000000 -3.589778 -36.077092 0.593590 -5.681280 -12.004837 3.926311 8.842994 -82.975032 33.942343 0.000000 0.000000 0.000000 4.711421 -23.322534 4.103585 2.463073 -13.633311 -1.868336 -11.034749 -85.503635 -18.948771 0.000000 0.000000 0.000000 -0.890596 8.972476 3.501059 -0.806058 10.908827 -2.016519 -0.676306 -0.640959 -0.336385 0.000000 0.000000 0.000000 0.041652 -20.437575 6.365824 0.614507 31.293177 -5.737862 -0.580392 -4.658335 -0.377601 0.000000 0.000000 0.000000 
-2978.563965 825.908569 1132.428955 -2.461861 0.946524 0.256083 -0.237275 13.953846 5.058911 -0.847110 -2.421446 -1.277852 -0.654439 2.153935 0.585488 -1.209601 5.815299 4.054580 0.000000 0.000000 0.000000 -3.397860 -36.321717 0.507753 -4.203154 -12.073605 4.146408 9.784138 -81.696604 30.874131 0.000000 0.000000 0.000000 4.690220 -23.423103 4.204997 2.408920 -13.785148 -2.111071 -10.991251 -84.456851 -18.517703 0.000000 0.000000 0.000000 -0.727121 9.297778 3.364121 -0.794544 11.695050 -2.208916 -0.661605 -0.332757 -0.310481 0.000000 0.000000 0.000000 -0.562335 -19.620925 5.683955 0.080094 26.566364 -5.768279 -1.345419 -4.638160 -0.712017 0.000000 0.000000 0.000000 
-2972.015869 828.302124 1131.385986 -3.145922 0.505361 0.206133 0.074586 14.196199 5.242405 -0.871249 -2.444028 -1.314490 -0.727795 2.170936 0.589646 -1.211665 6.090508 4.066933 0.000000 0.000000 0.000000 -3.231259 -36.646124 0.317907 -3.086867 -12.074553 4.436818 10.441876 -80.352098 28.529309 0.000000 0.000000 0.000000 4.770156 -23.421707 4.299230 2.323495 -13.882192 -2.348689 -10.935218 -83.569499 -18.133207 0.000000 0.000000 0.000000 -0.546270 9.194501 3.176885 -0.807310 13.319080 -2.265735 -0.639578 -0.528742 -0.314816 0.000000 0.000000 0.000000 -0.626467 -18.658905 4.807271 0.066488 22.478506 -5.039921 -1.194496 -3.252644 -0.614441 0.000000 0.000000 0.000000 
-2964.997803 831.316772 1129.553955 -4.010133 0.099791 0.135802 0.392369 14.215685 5.357290 -0.870476 -2.415504 -1.299366 -0.778323 2.174180 0.597992 -1.195929 6.429886 4.036425 0.000000 0.000000 0.000000 -3.035128 -36.991640 -0.031977 -2.200810 -12.037082 4.812366 10.912161 -78.891215 26.610850 0.000000 0.000000 0.000000 4.916860 -23.330467 4.409803 2.255095 -13.934038 -2.594571 -10.846007 -82.756913 -17.876612 0.000000 0.000000 0.000000 -0.340009 8.726407 2.899618 -0.825864 15.608669 -2.241771 -0.621392 -1.029411 -0.341458 0.000000 0.000000 0.000000 -0.282854 -17.506028 3.698111 0.455596 18.684074 -3.766734 -0.468553 -0.970603 -0.234862 0.000000 0.000000 0.000000 
-2957.996826 834.450928 1127.056030 -4.903870 -0.372371 0.023494 0.651949 14.234923 5.449509 -0.892866 -2.403421 -1.307796 -0.850244 2.175223 0.598294 -1.174881 6.752945 3.998476 0.000000 0.000000 0.000000 -2.896257 -37.413419 -0.245326 -1.484677 -11.959971 5.090047 11.258083 -77.626399 25.004334 0.000000 0.000000 0.000000 5.049683 -23.276307 4.530130 2.176662 -14.012942 -2.673377 -10.751763 -82.062406 -17.495353 0.000000 0.000000 0.000000 -0.091184 7.974211 2.537193 -0.810785 18.551494 -2.006080 -0.583476 -1.635545 -0.368282 0.000000 0.000000 0.000000 0.249119 -16.380190 2.659938 1.014726 16.033188 -2.464772 0.379666 0.868408 0.193871 0.000000 0.000000 0.000000 
-2951.235596 837.514526 1123.750977 -5.711380 -0.948037 -0.077608 0.793324 14.273068 5.410527 -1.001954 -2.420654 -1.327785 -1.013872 2.192882 0.590675 -1.155931 7.020670 3.976122 0.000000 0.000000 0.000000 -2.885394 -38.016174 -0.063480 -0.889058 -11.815952 5.093439 11.518839 -76.702712 23.628679 0.000000 0.000000 0.000000 5.122228 -23.322888 4.645069 2.064202 -14.164041 -2.416814 -10.671147 -81.531760 -16.781504 0.000000 0.000000 0.000000 0.217360 6.889430 1.957557 -0.756564 22.289744 -1.353836 -0.523371 -2.255987 -0.390045 0.000000 0.000000 0.000000 0.883122 -15.504203 1.772723 1.700881 15.447258 -1.422676 1.234492 0.970705 0.582804 0.000000 0.000000 0.000000 
-2944.527832 840.702209 1119.595947 -6.500157 -1.571915 -0.072224 0.850917 14.203472 5.055738 -1.186561 -2.415996 -1.246907 -1.269990 2.220755 0.581913 -1.135144 7.264291 3.958836 0.000000 0.000000 0.000000 -2.968019 -38.787051 0.403162 -0.402406 -11.592206 4.880268 11.695640 -75.957802 22.463804 0.000000 0.000000 0.000000 5.161318 -23.398172 4.738140 1.932597 -14.376614 -1.863423 -10.610655 -81.134519 -15.826696 0.000000 0.000000 0.000000 0.625567 5.448913 1.064683 -0.637382 26.752846 -0.308910 -0.450825 -2.751144 -0.404644 0.000000 0.000000 0.000000 1.719393 -14.796729 0.822036 2.641625 16.562619 -0.453124 2.305708 -0.278711 1.032750 0.000000 0.000000 0.000000 
-2938.311768 843.366150 1115.536987 -7.190713 -2.219436 -0.008810 0.897023 14.252242 4.527242 -1.384829 -2.416625 -1.116942 -1.545949 2.254116 0.551350 -1.126090 7.445316 3.979403 0.000000 0.000000 0.000000 -3.218136 -39.470665 0.974294 0.029017 -11.314174 4.632762 11.824132 -75.624485 21.483185 0.000000 0.000000 0.000000 5.112943 -23.567962 4.776158 1.781297 -14.673819 -1.130958 -10.631184 -80.792889 -14.773356 0.000000 0.000000 0.000000 1.136988 3.936850 0.152388 -0.403056 31.265431 0.824741 -0.319452 -2.689288 -0.367291 0.000000 0.000000 0.000000 2.423819 -14.256241 0.072683 3.458408 18.230824 0.284182 3.230626 -1.819750 1.404044 0.000000 0.000000 0.000000 
-2933.046631 844.947510 1112.056030 -7.645770 -2.876273 0.075584 0.950653 14.597036 3.889700 -1.578136 -2.443695 -0.984770 -1.810089 2.309028 0.482091 -1.145749 7.531738 4.083563 0.000000 0.000000 0.000000 -3.776723 -39.926290 1.611745 0.433663 -10.993216 4.455087 11.889991 -75.970428 20.743175 0.000000 0.000000 0.000000 4.914599 -24.000081 4.747604 1.595826 -15.108114 -0.263822 -10.779261 -80.439463 -13.718161 0.000000 0.000000 0.000000 1.738371 2.459931 -0.582569 -0.046860 35.570048 1.894936 -0.014580 -1.826391 -0.218349 0.000000 0.000000 0.000000 2.698062 -14.051215 -0.229658 3.847447 20.016457 0.549020 3.655602 -3.172944 1.549343 0.000000 0.000000 0.000000 
